<?xml version="1.0" encoding="UTF-8"?>
<svg width="200" height="80" viewBox="0 0 200 80" xmlns="http://www.w3.org/2000/svg">
  <!-- 顺丰品牌色彩：红色主色调 -->
  <defs>
    <linearGradient id="sfGradient" x1="0%" y1="0%" x2="100%" y2="0%">
      <stop offset="0%" style="stop-color:#E60012;stop-opacity:1" />
      <stop offset="100%" style="stop-color:#C8102E;stop-opacity:1" />
    </linearGradient>
  </defs>
  
  <!-- 背景 -->
  <rect width="200" height="80" fill="url(#sfGradient)" rx="8"/>
  
  <!-- SF字母标识 -->
  <g fill="white">
    <!-- S字母 -->
    <path d="M30 25 Q35 20 45 20 Q55 20 60 25 Q60 30 55 32 L40 35 Q35 37 35 42 Q35 47 40 47 L55 47 L55 52 L40 52 Q30 52 25 47 Q25 42 30 40 L45 37 Q50 35 50 30 Q50 25 45 25 L30 25 Z"/>
    
    <!-- F字母 -->
    <rect x="70" y="20" width="5" height="32"/>
    <rect x="70" y="20" width="20" height="5"/>
    <rect x="70" y="33" width="15" height="4"/>
  </g>
  
  <!-- 顺丰中文 -->
  <g fill="white" font-family="Microsoft YaHei, SimHei" font-size="16" font-weight="bold">
    <text x="110" y="35">顺丰</text>
    <text x="110" y="52" font-size="12">EXPRESS</text>
  </g>
</svg>
